PathFileType	4	(X/Y/Z)	Patient5_TMGait_0pt45_1_left_02.trc.trc
DataRate	CameraRate	NumFrames	NumMarkers	Units	OrigDataRate	OrigDataStartFrame	OrigNumFrames
59.322033898305	59.322033898305	6	32	mm	59.322033898305	71	       141
Frame#	Time	R.ASIS			L.ASIS			Chest			R.Shoulder			Neck			L.Shoulder			L.Elbow			L.Wrist			R.Elbow			R.Wrist			L.Thigh.Superior			L.Thigh.Lateral			L.Thigh.Inferior			L.Patella			L.Shank.Superior			L.Shank.Lateral			L.Shank.Inferior			L.Heel			L.Midfoot.Lateral			L.Midfoot.Superior			L.Toe			R.Thigh.Superior			R.Thigh.Lateral			R.Thigh.Inferior			R.Patella			R.Shank.Superior			R.Shank.Lateral			R.Shank.Inferior			R.Heel			R.Midfoot.Lateral			R.Midfoot.Superior			R.Toe			
		X1	Y1	Z1	X2	Y2	Z2	X3	Y3	Z3	X4	Y4	Z4	X5	Y5	Z5	X6	Y6	Z6	X7	Y7	Z7	X8	Y8	Z8	X9	Y9	Z9	X10	Y10	Z10	X11	Y11	Z11	X12	Y12	Z12	X13	Y13	Z13	X14	Y14	Z14	X15	Y15	Z15	X16	Y16	Z16	X17	Y17	Z17	X18	Y18	Z18	X19	Y19	Z19	X20	Y20	Z20	X21	Y21	Z21	X22	Y22	Z22	X23	Y23	Z23	X24	Y24	Z24	X25	Y25	Z25	X26	Y26	Z26	X27	Y27	Z27	X28	Y28	Z28	X29	Y29	Z29	X30	Y30	Z30	X31	Y31	Z31	X32	Y32	Z32	

71	2.880000000000	929.772089081401	1011.399136509013	573.555028230829	949.855347425259	962.313671331149	324.185768466504	1001.115454646931	1444.063000024532	456.026687654414	871.519936280686	1510.273373612247	599.655014097893	885.853836000439	1568.083981478062	415.873870910775	983.489124209466	1509.904371853925	253.753595673653	969.260266839472	1180.717450863345	125.114727309115	1132.900811940428	947.829568731560	152.289360027234	764.864687552315	1186.878764404183	716.324023959542	980.571718924812	993.910623231249	693.014433464333	954.470555087382	735.801033433541	340.298812904589	878.260366188224	668.260563748256	291.994325597205	931.019972580522	607.705611171194	368.023260452082	917.496150133909	494.938813355615	379.224928174898	860.259964746179	394.522914503752	393.744553391101	805.121051612936	328.203237431475	309.051407855474	817.516303166817	275.681172404360	401.335456856973	668.315518461768	50.510797503288	386.737737026899	760.713436569531	28.433509743650	331.953839398092	853.407877054075	87.119112541101	385.195785036383	962.069557796340	44.414387545923	392.484795200792	997.496165458555	815.432324735112	614.951574342350	942.628504608870	724.854790608528	680.147903919957	1046.420843698557	694.969636486124	624.732168827709	1077.660076479965	602.352496430385	673.130399039707	1052.625986015132	489.530071510237	638.066285096846	971.651501522854	417.615871379580	707.212386126805	1047.870438760595	349.446854397027	642.345419457628	953.840557303086	117.287773037898	603.631961683924	1022.775078681744	84.598157862754	685.848415887906	1123.590004548766	159.813336190837	690.219438057340	1229.353142023311	123.556331010956	701.244420427867	
72	2.896857142857	931.443129840507	1010.864274278536	573.184444713732	948.126005494792	962.071156450855	323.912335800815	998.692127009537	1443.910112654322	456.897520461051	869.360042221564	1509.337539468829	601.382249238239	882.825215667282	1567.515524063363	417.681038735945	979.854600489157	1509.944523582998	254.889206306043	966.188650144095	1180.347968872683	127.099212710858	1128.798414288955	946.687484815635	154.561501631275	761.826976044003	1186.101746968649	717.702863295040	977.696110118184	993.262857148739	695.252846808769	952.035098602586	735.428720281447	340.864380563100	874.462180619578	667.992505106540	292.372520506741	926.874401860903	607.184768468164	368.040586161472	912.177314358650	494.270924642492	378.877749577098	854.277380452138	394.260256936397	393.640184050459	798.296108677703	328.382320583118	309.197482799873	810.976887247575	275.619395237007	401.355522388681	660.688298669979	50.649137611157	386.889712161977	753.019846892044	28.507906367717	332.199336507482	845.813650506012	87.213367596498	385.160143780238	954.421015684249	44.380447238262	392.448025997548	1001.890279643071	816.252893273216	613.129365852124	949.749731711109	725.111674485523	679.914575158095	1053.020385822499	696.830694332221	622.667739241303	1086.253791859798	604.397266878928	670.480580218766	1060.911439071047	490.898598232898	635.745532158840	981.665310750450	418.673339376697	706.451782647421	1056.633343069937	350.788416042993	639.884474612184	962.210377509403	118.586471472416	602.810923950926	1033.076218351577	85.797115412048	683.461507801941	1133.688417984581	161.399437645091	685.799602694027	1239.737649045855	125.374145847271	694.373793891448	
73	2.913714285714	933.244649539152	1010.100820931729	572.707616019783	946.463733753173	961.774800259070	323.654498590325	996.402290807961	1443.717967555363	457.767920904676	867.509384932482	1508.265335481066	603.303146593632	879.834207960286	1566.877960744349	419.670122474123	976.051936865070	1509.997207081642	256.057854215846	962.748429335291	1180.010063034810	129.064078082207	1124.291281120064	945.544542686324	156.839739164621	759.148096478075	1185.230224711489	719.392158607987	974.958452707276	992.298122392825	697.679995807076	949.751373029552	735.060690427352	341.192861649291	870.890012895341	667.778389171830	292.617082049705	923.159856229228	606.710403045540	367.846795023900	907.295386116794	493.514702693944	378.324732457625	848.645367887622	393.953462117168	393.392357805543	791.641610222444	328.657502656445	309.151117127278	804.678221656260	275.573389871881	401.247662199017	653.073113180206	50.793171584365	387.030413967608	745.335191164758	28.586364512102	332.410464183152	838.266278391775	87.292011645903	385.060745340824	946.780406913578	44.346905391854	392.389402216754	1006.124245948891	816.169019925551	611.170171915938	956.334488402029	724.805751018459	679.525618773624	1058.841103523689	697.707338438494	620.338338209119	1093.755536684794	605.391222708756	667.528382780207	1067.838210697393	491.340386858951	633.177082682267	990.242495446195	419.011484212958	705.529580303263	1063.693277062753	351.199660986042	637.251422184212	968.330042920178	119.203867069637	602.041305374899	1041.140349717386	86.106033937902	680.888766578493	1141.711160506187	161.829167084449	681.126278303427	1247.950370078930	125.798449786763	687.066427227493	
74	2.930571428571	935.170179134900	1009.097782965940	572.153087042467	944.872027103215	961.415128585502	323.453310603501	994.246678827047	1443.460904722974	458.651141186831	865.977700300869	1507.060090461413	605.416847218459	876.893233421614	1566.152608949912	421.835815243408	972.090591079168	1510.019044430163	257.267048228525	958.907576324527	1179.670864998049	130.982690098117	1119.423034510150	944.421983724625	159.079590333577	756.951036625491	1184.239953164249	721.408806922892	972.485833355124	990.999465166312	700.232100344830	947.568632517567	734.641003554929	341.153412418326	867.590139939293	667.637040404145	292.695131036644	919.937000935853	606.252562634702	367.391255293549	902.900999785549	492.650716735053	377.520605852056	843.438312426438	393.576317109535	392.959323015916	785.193031940438	329.014955858273	308.888548150001	798.662973724574	275.525334955820	400.978648202480	645.473759848163	50.957775301670	387.146181746231	737.664943829586	28.664440333808	332.570151151032	830.771225956423	87.353165848183	384.885743851447	939.147531299457	44.316790998899	392.308364212075	1010.151255295772	815.156059294373	609.324512453539	962.224020770638	723.806100139696	678.965797372571	1063.798671974442	697.473061961951	617.805630717741	1100.014367983968	605.183162120604	664.328933388052	1073.350091403121	490.747016903820	630.401804196621	997.301275401638	418.463329333233	704.404716125188	1069.078286295935	350.573169410485	634.477365185677	972.438749908170	118.972555949811	601.217939753239	1047.079499630004	85.403478911980	678.166151473984	1147.733927377065	161.029721081816	676.361644967242	1254.062485551505	124.804342303384	679.662494848952	
75	2.947428571429	937.221934953067	1007.843606640323	571.552712437015	943.371275762214	960.993183245475	323.335526762880	992.227864230819	1443.117077155158	459.569059786133	864.776902660894	1505.728546423649	607.733772646863	874.017622534703	1565.324117148798	424.183736488550	967.982842085561	1509.969885730006	258.537660829368	954.650214594613	1179.304150712548	132.837526282567	1114.232120318975	943.331935653076	161.235295618298	755.329491172900	1183.114343459671	723.767041820650	970.403282473829	989.385335746668	702.850584078080	945.431105059414	734.125480775368	340.628356161877	864.541556942209	667.575887283458	292.596922673148	917.194726400941	605.783244837001	366.621562465233	898.963939423717	491.681602024355	376.416134165304	838.665707423147	393.121905181543	392.300141006587	778.933154944037	329.445955221750	308.405624891904	792.933413282827	275.465812365857	400.518248128420	637.893049230179	51.164138514485	387.228699137819	730.011523866796	28.738459242311	332.673711945694	823.330083367745	87.401713612885	384.625089085933	931.519602810091	44.291489394395	392.205486106845	1013.938827913363	813.231192903746	607.785454901415	967.290977814437	722.009382931515	678.216961765801	1067.828248149853	696.045689251728	615.122031324436	1104.912564496119	603.672792242324	660.928811670432	1077.412513383402	489.043820440185	627.442213014561	1002.795220561672	416.899172924111	703.031824005331	1072.846464901412	348.838862971609	631.570125887106	974.783838885216	117.766011541746	600.215683344833	1051.046370002583	83.593915104381	675.287107764717	1151.877866616172	158.962838911378	671.609976319581	1258.193047889547	122.403328595460	672.406813480070	
76	2.964285714286	939.412998232737	1006.325561709213	570.939283598562	942.010348373885	960.521660788723	323.311177733596	990.351753466373	1442.670861023484	460.549899072065	863.923350828729	1504.276447105105	610.274169121907	871.224096052203	1564.380498143112	426.731743882694	963.739504284633	1509.815852331944	259.901564596760	949.980158946057	1178.892083002317	134.622363438962	1108.750922748027	942.276038626574	163.261727732243	754.347700972434	1181.843128062014	726.481628424886	968.822725492270	987.497791783296	705.484841922722	943.308597194347	733.496956853670	339.574034898247	861.674777770424	667.587042824851	292.346780830525	914.859530771841	605.279720195962	365.512049966188	895.389603935300	490.630313691983	374.989240111704	834.272641463127	392.602287296429	391.400348487265	772.810785560255	329.944845033394	307.733060534506	787.454995476095	275.394599922113	399.858837107679	630.333761820880	51.438357241907	387.278271413841	722.374685950811	28.812156826507	332.728718142358	815.939022786516	87.444689931529	384.279421833052	923.892678899575	44.269234925185	392.083251986018	1017.453531782287	810.436912201799	606.642652340389	971.436144843908	719.347636949086	677.263211167594	1070.875788048828	693.386871732619	612.329128144842	1108.359383138946	600.815185594802	657.361265795542	1080.006063872125	486.196479470739	624.296240266371	1006.709362386903	414.233390487670	701.361034265092	1075.073335122897	345.967173284457	628.509427281231	975.597264618403	115.505481245417	598.908041871637	1053.231060260230	80.614130035806	672.197182629677	1154.305068467968	155.624280322594	666.889542252009	1260.508439609556	118.640338521397	665.390370528766	
